<?xml version="1.0" standalone="no"?>
<!DOCTYPE svg PUBLIC "-//W3C//DTD SVG 20010904//EN"
 "http://www.w3.org/TR/2001/REC-SVG-20010904/DTD/svg10.dtd">
<svg version="1.0" xmlns="http://www.w3.org/2000/svg"
 width="975.000000pt" height="975.000000pt" viewBox="0 0 975.000000 975.000000"
 preserveAspectRatio="xMidYMid meet">
<metadata>
Created by potrace 1.16, written by Peter Selinger 2001-2019
</metadata>
<g transform="translate(0.000000,975.000000) scale(0.100000,-0.100000)"
fill="#000000" stroke="none">
<path d="M0 4875 l0 -4875 4875 0 4875 0 0 4875 0 4875 -4875 0 -4875 0 0
-4875z m8075 1061 c49 -15 112 -39 139 -54 138 -75 240 -222 300 -432 50 -175
75 -535 58 -824 -37 -609 -174 -846 -537 -928 -129 -29 -372 -29 -505 1 -311
69 -456 269 -516 711 -25 179 -25 635 0 815 56 410 186 614 444 699 122 40
166 45 352 42 155 -3 185 -6 265 -30z m-5545 -241 l0 -235 -370 0 -370 0 2
-192 3 -193 348 -3 347 -2 0 -220 0 -220 -347 -2 -348 -3 -3 -222 -2 -223 385
0 385 0 0 -235 0 -235 -670 0 -670 0 0 1110 0 1110 655 0 655 0 0 -235z m1080
-447 c102 -372 188 -680 193 -684 4 -4 7 302 7 679 l0 687 270 0 270 0 0
-1110 0 -1110 -318 0 -318 0 -188 673 c-104 369 -192 679 -197 687 -5 8 -9
-294 -9 -672 l0 -688 -270 0 -270 0 0 1110 0 1110 322 -2 323 -3 185 -677z
m1450 674 c0 -4 52 -379 115 -832 63 -454 115 -829 115 -834 0 -5 3 -6 7 -2 4
4 59 381 123 839 l116 832 308 3 c290 2 307 1 302 -15 -3 -10 -109 -499 -236
-1088 -126 -588 -232 -1080 -235 -1092 l-5 -23 -373 0 -373 0 -232 1103 c-128
606 -233 1105 -232 1110 0 9 600 9 600 -1z m1740 -1102 l0 -1110 -285 0 -285
0 0 1110 0 1110 285 0 285 0 0 -1110z"/>
<path d="M7725 5575 c-120 -44 -139 -160 -132 -830 3 -367 7 -463 20 -519 29
-121 68 -164 158 -172 99 -10 153 43 186 183 13 55 17 150 20 506 6 620 -10
748 -107 818 -35 26 -97 32 -145 14z"/>
</g>
</svg>
