<svg width="64" height="64" viewBox="0 0 64 64" fill="none" xmlns="http://www.w3.org/2000/svg">
<path d="M29 43.9999C19.08 43.9999 11 35.9299 11 25.9999C11 16.0699 19.08 7.9999 29 7.9999C38.92 7.9999 47 16.0699 47 25.9999C47 35.9299 38.92 43.9999 29 43.9999ZM29 13.9999C22.38 13.9999 17 19.3799 17 25.9999C17 32.6199 22.38 37.9999 29 37.9999C35.62 37.9999 41 32.6199 41 25.9999C41 19.3799 35.62 13.9999 29 13.9999ZM34.12 61.1199L46.12 49.1199C47.29 47.9499 47.29 46.0499 46.12 44.8799C44.95 43.7099 43.05 43.7099 41.88 44.8799L29.88 56.8799C28.71 58.0499 28.71 59.9499 29.88 61.1199C30.47 61.7099 31.23 61.9999 32 61.9999C32.77 61.9999 33.54 61.7099 34.12 61.1199ZM50 7.3999C48.02 7.3999 46.4 9.0199 46.4 10.9999C46.4 12.9799 48.02 14.5999 50 14.5999C51.98 14.5999 53.6 12.9799 53.6 10.9999C53.6 9.0199 51.98 7.3999 50 7.3999Z" fill="white"/>
</svg>
